<svg width="41" height="40" viewBox="0 0 41 40" fill="none" xmlns="http://www.w3.org/2000/svg">
<ellipse cx="20.0858" cy="20" rx="20.0858" ry="20" fill="#006CD1"/>
<path d="M38.1638 19.8C38.1638 29.7411 30.0703 37.8 20.0865 37.8C10.1027 37.8 2.00927 29.7411 2.00927 19.8C2.00927 9.85886 10.1027 1.79999 20.0865 1.79999C30.0703 1.79999 38.1638 9.85886 38.1638 19.8Z" fill="white"/>
<g filter="url(#filter0_d_149_1857)">
<ellipse cx="20.0859" cy="10.9524" rx="3.34764" ry="3.33333" fill="#006CD1"/>
</g>
<path d="M15.3044 32.3809V16.6666L24.8681 16.6667V32.3809L20.0858 29.5238L15.3044 32.3809Z" fill="#FDD503"/>
<path d="M20.0858 22.381L15.3035 17.619V26.6667L20.0858 22.381Z" fill="#0F3E98"/>
<path d="M27.7376 15.2381H12.4341L20.0858 22.381L27.7376 15.2381Z" fill="#006CD1"/>
<path d="M20.0859 29.5239L24.8682 17.9185L24.8681 23.3334L21.3112 30.2567L20.0859 29.5239Z" fill="#FAB500"/>
<path d="M19.866 17.1836C19.8148 17.1836 19.7571 17.1911 19.7067 17.1816C19.6401 17.169 19.5958 17.1357 19.5247 17.1573C19.3786 17.2018 19.3602 17.4167 19.4944 17.4869C19.573 17.528 19.6289 17.4914 19.7067 17.4797C19.758 17.472 19.8141 17.4781 19.866 17.4781V19.3278C19.6146 19.3257 19.3416 19.2288 19.1456 19.0736C19.0834 19.0243 19.0324 18.9629 18.9788 18.905C19.0091 18.9139 19.0386 18.9109 19.0698 18.9138C19.1195 18.9185 19.1885 18.9333 19.2365 18.9145C19.2831 18.8962 19.3011 18.8334 19.2756 18.7919C19.2446 18.7412 19.1724 18.7126 19.1229 18.683C19.0066 18.6136 18.889 18.5459 18.7741 18.4743C18.7229 18.4424 18.6568 18.387 18.5924 18.4143C18.5316 18.4401 18.5314 18.5323 18.5209 18.5879C18.4992 18.7036 18.4785 18.8197 18.4556 18.9352C18.4427 19.0005 18.42 19.0725 18.4187 19.139C18.4175 19.2006 18.4713 19.2427 18.5315 19.2264C18.6121 19.2045 18.65 19.0892 18.7134 19.0409C18.7551 19.1371 18.8339 19.2262 18.902 19.3051C19.0657 19.4948 19.2659 19.6674 19.4944 19.7749C19.5557 19.8037 19.6191 19.8312 19.684 19.8508C19.7305 19.865 19.7838 19.8714 19.828 19.8914C19.9208 19.9335 19.9752 20.09 20.0858 20.09C20.1965 20.09 20.2509 19.9335 20.3436 19.8914C20.3879 19.8714 20.4412 19.865 20.4877 19.8508C20.5526 19.8312 20.616 19.8037 20.6773 19.7749C20.9058 19.6674 21.106 19.4948 21.2697 19.3051C21.3378 19.2262 21.4165 19.1371 21.4582 19.0409C21.5216 19.0892 21.5596 19.2045 21.6402 19.2264C21.7004 19.2427 21.7542 19.2006 21.753 19.139C21.7517 19.0725 21.7289 19.0005 21.716 18.9352C21.6932 18.8197 21.6725 18.7036 21.6507 18.5879C21.6403 18.5323 21.6401 18.4401 21.5792 18.4143C21.4996 18.3806 21.4003 18.473 21.3369 18.5109L21.064 18.674C21.0167 18.7022 20.9615 18.7274 20.9203 18.764C20.8762 18.8033 20.8685 18.8797 20.9278 18.9112C20.959 18.9277 21.007 18.9208 21.0412 18.92C21.0894 18.9188 21.1368 18.9125 21.1853 18.9125C20.9648 19.1638 20.6462 19.325 20.3057 19.3278V17.4781C20.3575 17.4781 20.4137 17.472 20.465 17.4797C20.5428 17.4914 20.5987 17.528 20.6773 17.4869C20.8115 17.4167 20.793 17.2018 20.6469 17.1573C20.5759 17.1357 20.5316 17.169 20.465 17.1816C20.4146 17.1911 20.3569 17.1836 20.3057 17.1836V17.0251C20.3057 16.9998 20.3005 16.9672 20.3103 16.9433C20.3272 16.9019 20.3796 16.8729 20.4059 16.8363C20.4668 16.7517 20.4853 16.6436 20.4703 16.5419C20.4639 16.4993 20.4492 16.4588 20.4286 16.4211C20.2785 16.1463 19.8651 16.1664 19.7315 16.4437C19.6737 16.5635 19.687 16.7188 19.7606 16.8288C19.7875 16.8689 19.8434 16.8993 19.8614 16.9433C19.8712 16.9672 19.866 16.9998 19.866 17.0251V17.1836Z" fill="white"/>
<defs>
<filter id="filter0_d_149_1857" x="14.7383" y="7.61908" width="14.6953" height="14.6667" filterUnits="userSpaceOnUse" color-interpolation-filters="sRGB">
<feFlood flood-opacity="0" result="BackgroundImageFix"/>
<feColorMatrix in="SourceAlpha" type="matrix" values="0 0 0 0 0 0 0 0 0 0 0 0 0 0 0 0 0 0 127 0" result="hardAlpha"/>
<feOffset dx="2" dy="4"/>
<feGaussianBlur stdDeviation="2"/>
<feComposite in2="hardAlpha" operator="out"/>
<feColorMatrix type="matrix" values="0 0 0 0 0 0 0 0 0 0 0 0 0 0 0 0 0 0 0.33 0"/>
<feBlend mode="normal" in2="BackgroundImageFix" result="effect1_dropShadow_149_1857"/>
<feBlend mode="normal" in="SourceGraphic" in2="effect1_dropShadow_149_1857" result="shape"/>
</filter>
</defs>
</svg>
